# xmcd
#
# Track frame offsets:
#	150
#	12076
#	26680
#	40271
#
# Disc length: 736 seconds
# Revision: 0
# Processed by: cddbd v1.5.2PL0 Copyright (c) Steve Scherf et al.
# Submitted via: dBpowerAMP V12.0
#
DISCID=2502de04
DTITLE=Diddley Bo Dixon - Shine Your Light On Me
DYEAR=2015
DGENRE=Blues
TTITLE0=Shine Your Light On Me
TTITLE1=Ukelele By My Side
TTITLE2=When you're Gone
TTITLE3=Mr Positive
EXTD=
EXTT0=
EXTT1=
EXTT2=
EXTT3=
PLAYORDER=
